<svg width="32" height="32" viewBox="0 0 32 32" fill="none" xmlns="http://www.w3.org/2000/svg">
<rect width="32" height="32" rx="4" fill="white"/>
<g clip-path="url(#clip0_139_31)">
<path d="M22.6667 12.6668H18V11.3335H22.6667V12.6668ZM23.8173 19.3335C23.5227 20.1982 22.4647 21.3335 20.4167 21.3335C18.3673 21.3335 16.7073 20.1808 16.7073 17.5502C16.7073 14.9435 18.2573 13.6035 20.3513 13.6035C22.406 13.6035 23.6607 14.7915 23.9347 16.5542C23.9867 16.8915 24.0073 17.3462 23.998 17.9808H18.6467C18.7333 20.1215 20.9687 20.1888 21.7053 19.3335H23.8173ZM18.6933 16.6668H22.0033C21.9333 15.6355 21.246 15.1875 20.352 15.1875C19.3747 15.1875 18.834 15.6995 18.6933 16.6668ZM12.3107 21.3255H8V11.3475H12.6353C16.286 11.4015 16.3553 14.9768 14.4487 15.9515C16.756 16.7915 16.8333 21.3255 12.3107 21.3255ZM10 15.3335H12.3893C14.0613 15.3335 14.3267 13.3335 12.1813 13.3335H10V15.3335ZM12.2607 17.3335H10V19.3442H12.2273C14.264 19.3442 14.1393 17.3335 12.2607 17.3335Z" fill="#333333"/>
</g>
<defs>
<clipPath id="clip0_139_31">
<rect width="16" height="16" fill="white" transform="translate(8 8)"/>
</clipPath>
</defs>
</svg>
