<svg width="16" height="15" viewBox="0 0 16 15" fill="none" xmlns="http://www.w3.org/2000/svg">
<path d="M7.9665 5.04794C6.40333 5.04794 5.14178 6.30949 5.14178 7.87266C5.14178 9.43582 6.40333 10.6974 7.9665 10.6974C9.52966 10.6974 10.7912 9.43582 10.7912 7.87266C10.7912 6.30949 9.52966 5.04794 7.9665 5.04794ZM7.9665 9.70851C6.95561 9.70851 6.13064 8.88355 6.13064 7.87266C6.13064 6.86176 6.95561 6.0368 7.9665 6.0368C8.97739 6.0368 9.80236 6.86176 9.80236 7.87266C9.80236 8.88355 8.97739 9.70851 7.9665 9.70851ZM10.9069 4.27394C10.5419 4.27394 10.2472 4.56867 10.2472 4.93363C10.2472 5.2986 10.5419 5.59333 10.9069 5.59333C11.2719 5.59333 11.5666 5.29998 11.5666 4.93363C11.5667 4.84697 11.5497 4.76114 11.5166 4.68105C11.4835 4.60096 11.4349 4.52819 11.3736 4.46691C11.3123 4.40563 11.2396 4.35705 11.1595 4.32393C11.0794 4.29082 10.9936 4.27383 10.9069 4.27394ZM13.4727 7.87266C13.4727 7.11242 13.4796 6.35907 13.4369 5.60022C13.3942 4.71878 13.1931 3.93651 12.5486 3.29197C11.9026 2.64604 11.1218 2.44634 10.2403 2.40365C9.48008 2.36096 8.72673 2.36784 7.96788 2.36784C7.20764 2.36784 6.45429 2.36096 5.69543 2.40365C4.814 2.44634 4.03173 2.64742 3.38718 3.29197C2.74126 3.93789 2.54156 4.71878 2.49886 5.60022C2.45617 6.36045 2.46306 7.1138 2.46306 7.87266C2.46306 8.63151 2.45617 9.38624 2.49886 10.1451C2.54156 11.0265 2.74264 11.8088 3.38718 12.4533C4.03311 13.0993 4.814 13.299 5.69543 13.3417C6.45567 13.3844 7.20902 13.3775 7.96788 13.3775C8.72811 13.3775 9.48146 13.3844 10.2403 13.3417C11.1218 13.299 11.904 13.0979 12.5486 12.4533C13.1945 11.8074 13.3942 11.0265 13.4369 10.1451C13.481 9.38624 13.4727 8.63289 13.4727 7.87266ZM12.2607 11.1202C12.1602 11.3708 12.039 11.5581 11.8448 11.751C11.6506 11.9451 11.4647 12.0663 11.214 12.1669C10.4896 12.4547 8.76943 12.39 7.9665 12.39C7.16357 12.39 5.44202 12.4547 4.71759 12.1683C4.46694 12.0677 4.27963 11.9465 4.08682 11.7523C3.89263 11.5581 3.77143 11.3722 3.67089 11.1216C3.38443 10.3958 3.44916 8.67558 3.44916 7.87266C3.44916 7.06973 3.38443 5.34818 3.67089 4.62375C3.77143 4.3731 3.89263 4.18579 4.08682 3.99298C4.28101 3.80017 4.46694 3.67759 4.71759 3.57705C5.44202 3.29059 7.16357 3.35532 7.9665 3.35532C8.76943 3.35532 10.491 3.29059 11.2154 3.57705C11.4661 3.67759 11.6534 3.79879 11.8462 3.99298C12.0404 4.18717 12.1616 4.3731 12.2621 4.62375C12.5486 5.34818 12.4838 7.06973 12.4838 7.87266C12.4838 8.67558 12.5486 10.3958 12.2607 11.1202Z" fill="#333333"/>
</svg>
