<svg width="32" height="32" viewBox="0 0 32 32" fill="none" xmlns="http://www.w3.org/2000/svg">
<rect width="32" height="32" rx="4" fill="white"/>
<path d="M15.9942 13.913C14.8473 13.913 13.9114 14.8489 13.9114 15.9958C13.9114 17.1427 14.8473 18.0786 15.9942 18.0786C17.1411 18.0786 18.077 17.1427 18.077 15.9958C18.077 14.8489 17.1411 13.913 15.9942 13.913ZM22.2411 15.9958C22.2411 15.1333 22.2489 14.2786 22.2005 13.4177C22.152 12.4177 21.9239 11.5302 21.1927 10.7989C20.4598 10.0661 19.5739 9.83953 18.5739 9.79109C17.7114 9.74265 16.8567 9.75046 15.9958 9.75046C15.1333 9.75046 14.2786 9.74265 13.4177 9.79109C12.4177 9.83953 11.5302 10.0677 10.7989 10.7989C10.0661 11.5317 9.83953 12.4177 9.79109 13.4177C9.74265 14.2802 9.75046 15.1348 9.75046 15.9958C9.75046 16.8567 9.74265 17.713 9.79109 18.5739C9.83953 19.5739 10.0677 20.4614 10.7989 21.1927C11.5317 21.9255 12.4177 22.152 13.4177 22.2005C14.2802 22.2489 15.1348 22.2411 15.9958 22.2411C16.8583 22.2411 17.713 22.2489 18.5739 22.2005C19.5739 22.152 20.4614 21.9239 21.1927 21.1927C21.9255 20.4598 22.152 19.5739 22.2005 18.5739C22.2505 17.713 22.2411 16.8583 22.2411 15.9958V15.9958ZM15.9942 19.2005C14.2208 19.2005 12.7895 17.7692 12.7895 15.9958C12.7895 14.2223 14.2208 12.7911 15.9942 12.7911C17.7677 12.7911 19.1989 14.2223 19.1989 15.9958C19.1989 17.7692 17.7677 19.2005 15.9942 19.2005ZM19.3302 13.4083C18.9161 13.4083 18.5817 13.0739 18.5817 12.6598C18.5817 12.2458 18.9161 11.9114 19.3302 11.9114C19.7442 11.9114 20.0786 12.2458 20.0786 12.6598C20.0787 12.7582 20.0594 12.8555 20.0219 12.9464C19.9843 13.0373 19.9292 13.1198 19.8597 13.1893C19.7901 13.2589 19.7076 13.314 19.6167 13.3516C19.5259 13.3891 19.4285 13.4084 19.3302 13.4083V13.4083Z" fill="#333333"/>
</svg>
