<svg width="15" height="15" viewBox="0 0 15 15" fill="none" xmlns="http://www.w3.org/2000/svg">
<path d="M3.02524 6.3783C3.02524 5.92113 3.10516 5.48923 3.26264 5.08612C3.41311 4.69459 3.63665 4.33524 3.92137 4.02723C4.2055 3.72326 4.53065 3.46041 4.88742 3.24628C5.25345 3.02484 5.64974 2.85777 6.06383 2.75033C6.48293 2.64028 6.91448 2.58478 7.34778 2.58521C8.01709 2.58521 8.63996 2.72682 9.2176 3.00888C9.78769 3.2858 10.2729 3.71076 10.6226 4.23936C10.9834 4.77703 11.1626 5.38522 11.1626 6.06334C11.1626 6.46997 11.1227 6.86779 11.041 7.25679C10.9608 7.64558 10.8333 8.0231 10.6614 8.38091C10.4975 8.72729 10.2833 9.04749 10.0256 9.3311C9.7666 9.61019 9.45296 9.83302 9.10418 9.98571C8.72552 10.1517 8.3159 10.2352 7.9025 10.2307C7.61515 10.2307 7.32839 10.1632 7.04516 10.0274C6.76193 9.89228 6.55861 9.70659 6.43638 9.4686C6.39349 9.63372 6.33473 9.8723 6.25657 10.1843C6.18136 10.4958 6.13082 10.6967 6.10849 10.7878C6.08499 10.8783 6.0415 11.0293 5.97804 11.2385C5.935 11.3933 5.87979 11.5444 5.81292 11.6904L5.61078 12.0865C5.52336 12.2564 5.42563 12.4209 5.31814 12.5789C5.21178 12.7328 5.08016 12.9168 4.92326 13.1283L4.83571 13.1594L4.77753 13.096C4.71466 12.4302 4.68234 12.0318 4.68234 11.9002C4.68234 11.5106 4.72876 11.0734 4.82043 10.588C4.91033 10.1032 5.05254 9.49387 5.24351 8.76111C5.43449 8.02893 5.54379 7.5982 5.57317 7.47069C5.4386 7.19627 5.37044 6.83782 5.37044 6.39711C5.37044 6.04512 5.48033 5.71547 5.70068 5.4052C5.92163 5.09611 6.20075 4.94157 6.53922 4.94157C6.79836 4.94157 6.99933 5.02736 7.14329 5.19953C7.28785 5.37112 7.35836 5.58736 7.35836 5.85121C7.35836 6.13091 7.26552 6.53578 7.07865 7.06523C6.89179 7.59526 6.79895 7.99073 6.79895 8.2534C6.79895 8.51959 6.89414 8.7423 7.08453 8.91682C7.27242 9.09144 7.52089 9.18606 7.77734 9.18067C8.01003 9.18067 8.22569 9.12778 8.42607 9.02142C8.62332 8.91818 8.79405 8.77077 8.92496 8.59069C9.21009 8.19951 9.41335 7.75482 9.52257 7.28324C9.57898 7.03526 9.62247 6.79963 9.6495 6.57809C9.67829 6.35538 9.69063 6.14502 9.69063 5.94523C9.69063 5.21246 9.45793 4.64129 8.99547 4.23231C8.53067 3.82332 7.92542 3.62001 7.1809 3.62001C6.33414 3.62001 5.62606 3.89384 5.059 4.44327C4.49136 4.99093 4.20578 5.68726 4.20578 6.53167C4.20578 6.71795 4.23398 6.89776 4.28745 7.07169C4.33975 7.24504 4.39675 7.38313 4.45845 7.48538C4.51956 7.58586 4.57715 7.684 4.62945 7.77449C4.68234 7.86498 4.70995 7.92962 4.70995 7.9684C4.70995 8.0871 4.67881 8.24165 4.61593 8.43262C4.55071 8.6236 4.47373 8.7188 4.38089 8.7188C4.37207 8.7188 4.33564 8.71233 4.27218 8.69882C4.05238 8.6332 3.85389 8.51054 3.6969 8.34331C3.53027 8.16999 3.39877 7.96606 3.30965 7.74276C3.22079 7.52026 3.15158 7.2904 3.10281 7.05583C3.05012 6.83387 3.02408 6.60642 3.02524 6.3783Z" fill="#333333"/>
</svg>
