<svg width="119" height="24" viewBox="0 0 119 24" fill="none" xmlns="http://www.w3.org/2000/svg">
<path d="M10.571 3.16801C10.9147 2.35155 12.0855 2.35155 12.4292 3.16801L14.458 7.9869C14.603 8.3311 14.9307 8.56628 15.3068 8.59606L20.5728 9.01314C21.465 9.08381 21.8268 10.1838 21.147 10.7591L17.1349 14.1543C16.8483 14.3969 16.7231 14.7774 16.8107 15.14L18.0365 20.2167C18.2441 21.0768 17.297 21.7567 16.5331 21.2958L12.0247 18.5752C11.7026 18.3809 11.2976 18.3809 10.9756 18.5752L6.46711 21.2958C5.70323 21.7567 4.75608 21.0768 4.96376 20.2167L6.18954 15.14C6.2771 14.7774 6.15194 14.3969 5.86538 14.1543L1.85318 10.7591C1.1734 10.1838 1.53519 9.08381 2.42741 9.01314L7.69348 8.59606C8.06962 8.56628 8.39728 8.3311 8.54219 7.9869L10.571 3.16801Z" fill="#0099FF"/>
<path d="M34.5709 3.16801C34.9147 2.35155 36.0854 2.35155 36.4292 3.16801L38.4579 7.9869C38.6029 8.3311 38.9306 8.56628 39.3067 8.59606L44.5727 9.01314C45.4649 9.08381 45.8267 10.1838 45.1469 10.7591L41.1348 14.1543C40.8483 14.3969 40.7231 14.7774 40.8106 15.14L42.0364 20.2167C42.2441 21.0768 41.2969 21.7567 40.5331 21.2958L36.0246 18.5752C35.7026 18.3809 35.2976 18.3809 34.9755 18.5752L30.467 21.2958C29.7032 21.7567 28.756 21.0768 28.9637 20.2167L30.1895 15.14C30.277 14.7774 30.1519 14.3969 29.8653 14.1543L25.8531 10.7591C25.1733 10.1838 25.5351 9.08381 26.4274 9.01314L31.6934 8.59606C32.0696 8.56628 32.3972 8.3311 32.5421 7.9869L34.5709 3.16801Z" fill="#57B9FB"/>
<path d="M58.5709 3.16801C58.9146 2.35155 60.0854 2.35155 60.4291 3.16801L62.4579 7.9869C62.6029 8.3311 62.9306 8.56628 63.3067 8.59606L68.5727 9.01314C69.4649 9.08381 69.8267 10.1838 69.1469 10.7591L65.1348 14.1543C64.8482 14.3969 64.723 14.7774 64.8106 15.14L66.0363 20.2167C66.244 21.0768 65.2969 21.7567 64.533 21.2958L60.0245 18.5752C59.7025 18.3809 59.2975 18.3809 58.9755 18.5752L54.467 21.2958C53.7031 21.7567 52.756 21.0768 52.9636 20.2167L54.1894 15.14C54.277 14.7774 54.1518 14.3969 53.8653 14.1543L49.8531 10.7591C49.1733 10.1838 49.5351 9.08381 50.4273 9.01314L55.6934 8.59606C56.0695 8.56628 56.3972 8.3311 56.5421 7.9869L58.5709 3.16801Z" fill="#9FD5F9"/>
<path d="M82.5709 3.16801C82.9146 2.35155 84.0854 2.35155 84.4291 3.16801L86.4579 7.9869C86.6029 8.3311 86.9306 8.56628 87.3067 8.59606L92.5727 9.01314C93.4649 9.08381 93.8267 10.1838 93.1469 10.7591L89.1348 14.1543C88.8482 14.3969 88.723 14.7774 88.8106 15.14L90.0363 20.2167C90.244 21.0768 89.2969 21.7567 88.533 21.2958L84.0245 18.5752C83.7025 18.3809 83.2975 18.3809 82.9755 18.5752L78.467 21.2958C77.7031 21.7567 76.756 21.0768 76.9636 20.2167L78.1894 15.14C78.277 14.7774 78.1518 14.3969 77.8653 14.1543L73.8531 10.7591C73.1733 10.1838 73.5351 9.08381 74.4273 9.01314L79.6934 8.59606C80.0695 8.56628 80.3972 8.3311 80.5421 7.9869L82.5709 3.16801Z" fill="#AEDBF9"/>
<path d="M106.571 3.16801C106.914 2.35155 108.085 2.35155 108.429 3.16801L110.458 7.9869C110.603 8.3311 110.93 8.56628 111.307 8.59606L116.573 9.01314C117.465 9.08381 117.827 10.1838 117.147 10.7591L113.135 14.1543C112.848 14.3969 112.723 14.7774 112.81 15.14L114.036 20.2167C114.244 21.0768 113.297 21.7567 112.533 21.2958L108.024 18.5752C107.702 18.3809 107.297 18.3809 106.975 18.5752L102.467 21.2958C101.703 21.7567 100.756 21.0768 100.964 20.2167L102.189 15.14C102.277 14.7774 102.152 14.3969 101.865 14.1543L97.8529 10.7591C97.1732 10.1838 97.5349 9.08381 98.4272 9.01314L103.693 8.59606C104.069 8.56628 104.397 8.3311 104.542 7.9869L106.571 3.16801Z" fill="#D4E9F7"/>
</svg>
