<svg width="32" height="32" viewBox="0 0 32 32" fill="none" xmlns="http://www.w3.org/2000/svg">
<rect width="32" height="32" rx="4" fill="white"/>
<path d="M23.762 11.2912C23.2054 11.5379 22.6074 11.7046 21.9787 11.7799C22.6274 11.3918 23.1127 10.7809 23.344 10.0612C22.7346 10.4232 22.0676 10.678 21.372 10.8146C20.9043 10.3151 20.2847 9.98411 19.6096 9.87287C18.9344 9.76164 18.2414 9.87642 17.6382 10.1994C17.0349 10.5224 16.5552 11.0355 16.2735 11.659C15.9917 12.2826 15.9237 12.9817 16.08 13.6479C14.8452 13.5859 13.6371 13.2649 12.5343 12.7058C11.4315 12.1467 10.4586 11.362 9.67869 10.4026C9.41203 10.8626 9.25869 11.3959 9.25869 11.9639C9.2584 12.4752 9.38432 12.9787 9.62528 13.4297C9.86624 13.8807 10.2148 14.2652 10.64 14.5492C10.1469 14.5335 9.66461 14.4003 9.23336 14.1606V14.2006C9.23331 14.9177 9.48138 15.6128 9.93548 16.1679C10.3896 16.723 11.0217 17.1038 11.7247 17.2459C11.2672 17.3697 10.7876 17.3879 10.322 17.2992C10.5204 17.9163 10.9067 18.4559 11.4269 18.8425C11.9472 19.2291 12.5753 19.4433 13.2234 19.4552C12.1233 20.3188 10.7646 20.7873 9.36603 20.7852C9.11828 20.7853 8.87075 20.7708 8.62469 20.7419C10.0443 21.6547 11.6969 22.1391 13.3847 22.1372C19.098 22.1372 22.2214 17.4052 22.2214 13.3012C22.2214 13.1679 22.218 13.0332 22.212 12.8999C22.8196 12.4605 23.344 11.9165 23.7607 11.2932L23.762 11.2912Z" fill="#333333"/>
</svg>
