<svg width="32" height="32" viewBox="0 0 32 32" fill="none" xmlns="http://www.w3.org/2000/svg">
<rect width="32" height="32" rx="4" fill="white"/>
<path d="M16.1548 7.57861C11.5888 7.57861 7.88684 11.2516 7.88684 15.7828C7.88684 17.3328 8.32038 18.7824 9.07327 20.0192L7.58105 24.4207L12.1586 22.9665C13.3432 23.6163 14.7055 23.987 16.1548 23.987C20.7215 23.987 24.4232 20.3135 24.4232 15.7828C24.4232 11.2516 20.7215 7.57861 16.1548 7.57861ZM20.2662 18.8985C20.0717 19.3808 19.192 19.8208 18.8038 19.8411C18.4161 19.8617 18.405 20.1416 16.291 19.2233C14.1773 18.3047 12.9056 16.0712 12.8053 15.9274C12.705 15.7841 11.9865 14.7602 12.0253 13.7299C12.0643 12.6993 12.6286 12.2131 12.83 12.0109C13.0311 11.8084 13.2618 11.7721 13.4026 11.7698C13.5691 11.7671 13.6769 11.7648 13.8001 11.7694C13.9232 11.774 14.108 11.7436 14.2681 12.1693C14.4281 12.595 14.8111 13.6412 14.8601 13.7479C14.909 13.8546 14.9393 13.9782 14.8639 14.1152C14.7883 14.2525 14.7496 14.3383 14.6398 14.4567C14.5295 14.575 14.4077 14.7214 14.3093 14.8119C14.1995 14.9121 14.0849 15.0214 14.2003 15.2355C14.3156 15.4496 14.7135 16.1512 15.3198 16.7294C16.0989 17.4726 16.7708 17.7192 16.9776 17.8315C17.1849 17.9444 17.3087 17.9319 17.4372 17.7966C17.5652 17.6613 17.9876 17.2046 18.1363 17.0008C18.285 16.7963 18.4243 16.8364 18.6153 16.9132C18.8062 16.9903 19.8243 17.5356 20.0316 17.6482C20.2388 17.7606 20.3772 17.8185 20.4267 17.9076C20.4762 17.9971 20.4606 18.4163 20.2662 18.8985Z" fill="#333333"/>
</svg>
