<svg width="15" height="15" viewBox="0 0 15 15" fill="none" xmlns="http://www.w3.org/2000/svg">
<path d="M7.70764 2.14331C4.54826 2.14331 1.97833 4.71323 1.97833 7.87262C1.97833 11.032 4.54826 13.6019 7.70764 13.6019C10.867 13.6019 13.4369 11.032 13.4369 7.87262C13.4369 4.71323 10.867 2.14331 7.70764 2.14331ZM11.4964 4.78485C12.1781 5.61808 12.5913 6.67855 12.601 7.83405C12.4398 7.79962 10.8216 7.47184 9.19368 7.67705C9.15925 7.59304 9.12482 7.50903 9.08901 7.42501C8.98709 7.18675 8.87829 6.94849 8.76398 6.71574C10.5723 5.97616 11.3931 4.92533 11.4964 4.78485ZM7.70764 2.98618C8.95128 2.98618 10.0875 3.45306 10.951 4.21881C10.8629 4.34414 10.1261 5.33437 8.38662 5.98718C7.58506 4.51354 6.69675 3.30432 6.5604 3.12253C6.93639 3.03163 7.32063 2.98618 7.70764 2.98618ZM5.62663 3.45169C5.75609 3.62797 6.63064 4.84132 7.44045 6.28191C5.15149 6.88927 3.13521 6.88101 2.91623 6.87825C3.23437 5.35916 4.25766 4.09761 5.62663 3.45169ZM2.81432 7.8795C2.81432 7.82992 2.81569 7.77896 2.81707 7.72938C3.03054 7.73352 5.40214 7.76381 7.84674 7.0325C7.98722 7.30657 8.12081 7.58477 8.24338 7.86298C8.17865 7.88088 8.11392 7.90016 8.05057 7.92082C5.5261 8.7389 4.18329 10.9631 4.07173 11.1518C3.29084 10.2842 2.81432 9.13692 2.81432 7.8795ZM7.70764 12.7728C6.57555 12.7728 5.53298 12.3872 4.70388 11.7399C4.79203 11.5595 5.78226 9.6465 8.54224 8.68381L8.57392 8.67279C9.26116 10.4577 9.54487 11.9547 9.61787 12.3844C9.01416 12.6425 8.36417 12.7746 7.70764 12.7728ZM10.4415 11.9368C10.3919 11.6394 10.1316 10.207 9.49116 8.4483C11.0254 8.20315 12.3723 8.60531 12.539 8.65764C12.3214 10.0184 11.5405 11.1945 10.4415 11.9368Z" fill="#333333"/>
</svg>
