<svg width="32" height="32" viewBox="0 0 32 32" fill="none" xmlns="http://www.w3.org/2000/svg">
<rect width="32" height="32" rx="4" fill="white"/>
<path d="M22.7078 12.6266C22.6281 12.3297 22.4719 12.0591 22.2547 11.8416C22.0375 11.6242 21.767 11.4676 21.4703 11.3875C20.3781 11.0938 16 11.0938 16 11.0938C16 11.0938 11.6219 11.0937 10.5297 11.3859C10.2328 11.4657 9.96223 11.6223 9.74501 11.8397C9.52779 12.0572 9.37162 12.3281 9.29219 12.625C9 13.7188 9 16 9 16C9 16 9 18.2813 9.29219 19.3734C9.45312 19.9766 9.92812 20.4516 10.5297 20.6125C11.6219 20.9062 16 20.9062 16 20.9062C16 20.9062 20.3781 20.9062 21.4703 20.6125C22.0734 20.4516 22.5469 19.9766 22.7078 19.3734C23 18.2813 23 16 23 16C23 16 23 13.7188 22.7078 12.6266ZM14.6094 18.0938V13.9062L18.2344 15.9844L14.6094 18.0938Z" fill="#333333"/>
</svg>
